# xmcd
#
# Track frame offsets: 
#        150
#        19745
#        33028
#        55409
#        76368
#        94286
#        121861
#        139910
#        151743
#        163361
#        184594
#
# Disc length: 2739 seconds
#
# Revision: 0
# Processed by: cddbd v1.5.2PL0 Copyright (c) Steve Scherf et al.
# Submitted via: ExactAudioCopy v0.95b4
#
DISCID=870ab10b
DTITLE=Jay Goldmark - jay goldmark
DYEAR=1999
DGENRE=Folk
TTITLE0=Untie my tongue
TTITLE1=Hear me
TTITLE2=The Conductor
TTITLE3=Whispers
TTITLE4=Monkey and the tree
TTITLE5=Bitter man
TTITLE6=Just a child
TTITLE7=Another day
TTITLE8=Goodnight glow
TTITLE9=Ophelia
TTITLE10=To be free
EXTD=
EXTT0=
EXTT1=
EXTT2=
EXTT3=
EXTT4=
EXTT5=
EXTT6=
EXTT7=
EXTT8=
EXTT9=
EXTT10=
PLAYORDER=
